<?xml version="1.0" encoding="UTF-8"?> <svg xmlns="http://www.w3.org/2000/svg" xmlns:v="https://vecta.io/nano" viewBox="0 0 259.2 67.7"><path d="M108.8 7.4c-1.4 0-2.6.3-3.7 1-1 .7-1.7 1.6-2.1 2.7h-.2c-.3-1.2-.9-2.1-1.8-2.8-1-.7-2.1-1-3.4-1s-2.5.3-3.4 1-1.6 1.6-2 2.8H92V7.6h-5.8v19.2h6.1V15.4c0-.6.1-1.2.3-1.7s.6-.8 1-1.1.9-.4 1.4-.4c.8 0 1.4.3 1.9.8s.7 1.2.7 2.1v11.6h5.9V15.2c0-.9.2-1.7.7-2.2s1.1-.8 2-.8 1.4.3 1.9.8.7 1.2.7 2.2v11.5h6.1V13.8c0-2-.6-3.6-1.7-4.8s-2.6-1.7-4.4-1.7zm24.6 2.5c-.8-.8-1.8-1.5-2.9-1.9s-2.4-.6-3.8-.6c-1.9 0-3.6.4-5 1.2s-2.5 2-3.3 3.5-1.2 3.2-1.2 5.2.4 3.8 1.2 5.3a7.97 7.97 0 0 0 3.4 3.4c1.5.8 3.2 1.2 5.2 1.2s3.2-.3 4.4-.8c1.3-.5 2.3-1.2 3.1-2.2.8-.9 1.3-2 1.5-3.3l-5.6-.2c-.2.4-.4.8-.7 1.1s-.7.5-1.1.7-.9.2-1.5.2c-.8 0-1.5-.2-2-.5-.6-.3-1-.8-1.3-1.4a4.65 4.65 0 0 1-.5-2.1v-.2h12.8V17c0-1.6-.2-3-.7-4.2s-1.1-2.3-1.9-3.1zm-10.2 5.3c0-.6.2-1.2.5-1.7a3.04 3.04 0 0 1 1.3-1.2c.5-.3 1.2-.5 1.8-.5s1.3.1 1.8.4.9.7 1.2 1.2.5 1.1.5 1.7h-7.1zm15.1-14h6.1v25.6h-6.1zm23.6 7.9c-.8-.5-1.7-1-2.7-1.3s-2.2-.4-3.4-.4-3.2.3-4.4.8-2.2 1.3-2.9 2.2-1.1 2-1.3 3.1l5.6.2a2.37 2.37 0 0 1 .9-1.5c.5-.4 1.1-.5 2-.5s1.3.2 1.8.5c.4.4.7.8.7 1.5h0c0 .5-.2.8-.5 1s-.8.4-1.5.5l-2.6.3c-1 0-1.9.2-2.8.5-.9.2-1.6.6-2.3 1-.7.5-1.2 1.1-1.6 1.8s-.6 1.6-.6 2.7.3 2.3.8 3.2a5.1 5.1 0 0 0 2.2 1.9c.9.4 2 .6 3.3.6s1.7-.1 2.4-.3 1.3-.6 1.9-1c.5-.5 1-1 1.3-1.7h.2v2.7h5.8V13.8c0-1-.2-1.9-.6-2.7s-1-1.5-1.8-2zm-3.7 11c0 .6-.2 1.2-.5 1.6-.3.5-.7.8-1.3 1.1-.5.3-1.1.4-1.8.4s-1.3-.2-1.7-.5c-.5-.3-.7-.8-.7-1.5s.1-.8.3-1.1.5-.6.9-.7c.4-.2.9-.3 1.5-.4.3 0 .6 0 .9-.1.3 0 .6-.1.9-.2.3 0 .6-.1.8-.2.2 0 .5-.2.6-.3V20zm24.4-11.6c-1.2-.7-2.4-1.1-3.8-1.1s-1.9.2-2.6.5-1.3.8-1.8 1.3-.8 1.1-1.1 1.7h-.2V7.6H167V34h6.1V23.7h.1c.3.6.6 1.1 1.1 1.7.5.5 1.1.9 1.8 1.3.7.3 1.5.5 2.5.5 1.4 0 2.7-.4 3.9-1.1s2.1-1.8 2.8-3.3 1-3.3 1-5.5-.4-4.1-1.1-5.6a7.41 7.41 0 0 0-2.8-3.2zM179.8 20c-.3.8-.7 1.4-1.2 1.8s-1.2.6-1.9.6-1.4-.2-1.9-.6-.9-1-1.2-1.8-.4-1.7-.4-2.7.1-2 .4-2.7c.3-.8.7-1.3 1.2-1.8.5-.4 1.2-.6 1.9-.6s1.4.2 1.9.6.9 1 1.2 1.8.4 1.7.4 2.7-.1 1.9-.4 2.7zm21.4-12.4c-.3 0-.5-.1-.8-.2h-.9c-1.1 0-2 .3-2.8.9s-1.4 1.6-1.7 2.8h-.2V7.6h-5.9v19.2h6.1V16.4c0-.8.2-1.4.5-2s.8-1 1.4-1.3 1.2-.5 2-.5h1.3c.5 0 .9.1 1.1.2V7.5zm16.1 2.3c-.8-.8-1.8-1.5-2.9-1.9s-2.4-.6-3.8-.6-3.6.4-5 1.2-2.5 2-3.3 3.5-1.2 3.2-1.2 5.2.4 3.8 1.2 5.3a7.97 7.97 0 0 0 3.4 3.4c1.5.8 3.2 1.2 5.2 1.2s3.2-.3 4.4-.8c1.3-.5 2.3-1.2 3.1-2.2.8-.9 1.3-2 1.5-3.3l-5.6-.2c-.2.4-.4.8-.7 1.1s-.7.5-1.1.7-.9.2-1.5.2c-.8 0-1.5-.2-2-.5-.6-.3-1-.8-1.3-1.4a4.65 4.65 0 0 1-.5-2.1v-.2H220V17c0-1.6-.2-3-.7-4.2s-1.1-2.3-1.9-3.1zm-10.2 5.3c0-.6.2-1.2.5-1.7a3.04 3.04 0 0 1 1.3-1.2c.5-.3 1.2-.5 1.8-.5s1.3.1 1.8.4.9.7 1.2 1.2.5 1.1.5 1.7h-7.1zm26.7.3l-3.7-.7c-.8-.2-1.4-.4-1.7-.7s-.5-.6-.5-1c0-.5.2-.9.7-1.2s1.1-.4 1.8-.4 1 0 1.4.3c.4.2.7.4 1 .7s.4.7.5 1.1l5.6-.2c-.2-1.9-1-3.4-2.5-4.5s-3.6-1.6-6.2-1.6-3.2.2-4.5.7-2.3 1.2-3 2.1-1 2-1 3.3c0 1.5.5 2.7 1.4 3.6s2.4 1.6 4.3 1.9l3.4.6c.8.2 1.4.4 1.8.6.4.3.6.6.6 1 0 .5-.3.9-.8 1.2s-1.1.4-1.9.4-1.6-.2-2.1-.6a2.14 2.14 0 0 1-1-1.6l-6 .2c.2 1.9 1.1 3.4 2.7 4.6 1.6 1.1 3.7 1.7 6.5 1.7s3.2-.3 4.6-.8c1.3-.5 2.4-1.3 3.2-2.3a5.23 5.23 0 0 0 1.2-3.4c0-1.4-.5-2.5-1.4-3.4s-2.4-1.5-4.3-1.8zm23.6 1.9c-.9-.9-2.4-1.5-4.3-1.8l-3.7-.7c-.8-.2-1.4-.4-1.7-.7s-.5-.6-.5-1c0-.5.2-.9.7-1.2s1.1-.4 1.8-.4 1 0 1.4.3c.4.2.7.4 1 .7s.4.7.5 1.1l5.6-.2c-.2-1.9-1-3.4-2.5-4.5s-3.6-1.6-6.2-1.6-3.2.2-4.5.7-2.3 1.2-3 2.1-1 2-1 3.3c0 1.5.5 2.7 1.4 3.6s2.4 1.6 4.3 1.9l3.4.6c.8.2 1.4.4 1.8.6.4.3.6.6.6 1 0 .5-.3.9-.8 1.2s-1.1.4-1.9.4-1.6-.2-2.1-.6a2.14 2.14 0 0 1-1-1.6l-6 .2c.2 1.9 1.1 3.4 2.7 4.6 1.6 1.1 3.7 1.7 6.5 1.7s3.2-.3 4.6-.8c1.3-.5 2.4-1.3 3.2-2.3a5.23 5.23 0 0 0 1.2-3.4c0-1.4-.5-2.5-1.4-3.4z" fill="#485d89"></path><path d="M33.4.7L.3,15.2v18.7H.3v18.7l9.8,4.3c2-3.1,4.6-5.9,7.8-8-4.1-4-6.6-9.6-6.6-15.8,0-12.2,9.9-22.2,22.2-22.2s22.2,9.9,22.2,22.2-2.5,11.7-6.6,15.8c3.1,2.1,5.8,4.9,7.8,8l9.8-4.3v-18.7h0V15.2L33.4.7Z" fill="#8aaaf1"></path><g fill="#485d89"><path d="M51.5 59.1c-1.9-2.7-4.4-5-7.4-6.7-.2.1-.5.2-.7.4-.3.2-.6.3-1 .5-.2.1-.5.2-.7.3l-1.5.6c-.2 0-.4.1-.6.2-.5.1-.9.3-1.4.4-.1 0-.3 0-.4.1l-1.9.3h-.5l-2 .1c-.7 0-1.3 0-2-.1h-.5c-.6 0-1.3-.2-1.9-.3-.1 0-.3 0-.4-.1-.5-.1-.9-.2-1.4-.4-.2 0-.4-.1-.6-.2l-1.5-.6c-.2 0-.5-.2-.7-.3-.3-.1-.6-.3-1-.5-.2-.1-.5-.2-.7-.4-2.9 1.6-5.4 3.9-7.4 6.7L33.4 67l18.1-7.9z"></path><circle cx="33.4" cy="33.1" r="16.6"></circle><path d="M86.1 39.9H92v3.5h.2c.7-2.5 2.3-3.7 4.4-3.7s1.2 0 1.7.2v5.3c-.6-.2-1.7-.3-2.4-.3-2.2 0-3.8 1.5-3.8 3.8V59h-6V40zm12.8 9.5c0-5.9 3.6-9.8 9.6-9.8s9.6 3.9 9.6 9.8-3.6 9.8-9.6 9.8-9.6-3.9-9.6-9.8zm13 0c0-3.2-1.2-5.3-3.4-5.3s-3.5 2.1-3.5 5.3 1.2 5.3 3.5 5.3 3.4-2.1 3.4-5.3zm15.2 9.5h-6V33.6h6v25.3zm3-9.4c0-5.9 3.7-9.8 9.4-9.8s9.2 3.4 9.2 9.7v1.5H136v.2c0 2.3 1.4 3.9 3.8 3.9s2.8-.7 3.3-1.9l5.6.2c-.7 3.7-4 6.1-9 6.1s-9.6-3.7-9.6-9.8zm13-2.2c0-1.9-1.5-3.3-3.4-3.3s-3.5 1.4-3.6 3.3h7zm15.2 2.2c0-5.9 3.7-9.8 9.4-9.8s9.2 3.4 9.2 9.7v1.5h-12.7v.2c0 2.3 1.4 3.9 3.8 3.9s2.8-.7 3.3-1.9l5.6.2c-.7 3.7-4 6.1-9 6.1s-9.6-3.7-9.6-9.8zm13-2.2c0-1.9-1.5-3.3-3.4-3.3s-3.5 1.4-3.6 3.3h7zm7.9 2.1c0-6.7 3.6-9.8 7.6-9.8s4.6 1.8 5.4 3.5h.1v-9.6h6v25.3h-6v-3.1h-.2c-.8 1.8-2.5 3.4-5.3 3.4-4.2 0-7.6-3.3-7.6-9.8zm13.2 0c0-3.1-1.3-5-3.5-5s-3.5 2-3.5 5 1.2 5.1 3.5 5.1 3.5-2 3.5-5.1zm9.6-9.5h6v19h-6v-19zm20.5 4.4h-3.4v8.6c0 1.1.6 1.5 1.5 1.5s1.1-.1 1.3-.2l.9 4.4a9.31 9.31 0 0 1-3.1.5c-4.3.2-6.8-1.7-6.7-5.6v-9.2h-2.5v-4.5h2.5v-4.6h6v4.6h3.4v4.5zm2 5.1c0-5.9 3.6-9.8 9.6-9.8s9.6 3.9 9.6 9.8-3.6 9.8-9.6 9.8-9.6-3.9-9.6-9.8zm13.1 0c0-3.2-1.2-5.3-3.4-5.3s-3.5 2.1-3.5 5.3 1.2 5.3 3.5 5.3 3.4-2.1 3.4-5.3zm9.1-9.5h5.9v3.5h.2c.7-2.5 2.3-3.7 4.4-3.7s1.2 0 1.7.2v5.3c-.6-.2-1.7-.3-2.4-.3-2.2 0-3.8 1.5-3.8 3.8V59h-6V40z"></path></g><path d="M202,34.8c0-1.6,1.4-2.9,3.1-2.9s3.1,1.3,3.1,2.9-1.4,2.9-3.1,2.9-3.1-1.3-3.1-2.9Z" fill="#f27c24"></path></svg> 