<?xml version="1.0" encoding="UTF-8"?>
<svg id="Layer_2" xmlns="http://www.w3.org/2000/svg" viewBox="0 0 44.08 65.72"><defs><style>.cls-1{fill:#fff;}</style></defs><g id="Layer_1-2"><polygon class="cls-1" points="14.69 21.87 25.72 10.93 36.74 0 18.37 0 0 0 0 10.93 0 21.87 3.67 18.22 7.35 14.58 11.02 18.22 14.69 21.87"/><polygon class="cls-1" points="44.08 65.72 44.08 51.09 44.08 36.45 29.39 51.03 14.69 65.61 29.39 65.67 44.08 65.72"/><polygon class="cls-1" points="14.69 36.45 11.02 32.8 7.35 29.16 3.67 25.51 0 21.87 0 36.45 0 51.03 3.67 47.38 7.35 43.74 11.02 47.38 14.69 51.03 25.72 40.09 36.74 29.16 40.41 32.8 44.08 36.45 44.08 21.87 44.08 7.29 29.39 21.87 14.69 36.45"/></g></svg>