<svg version="1.1" id="Layer_1" x="0" y="0" viewBox="0 0 1330.3 1903.4" xml:space="preserve" xmlns="http://www.w3.org/2000/svg"><style type="text/css" id="style2">.st1{fill:#fff}</style><g id="g38"><g id="g24"><path class="st1" d="M742.2 959.1l-26-50.7-15.3-30.2c18-10 30.2-29.3 30.2-51.4 0-32.5-26.3-58.8-58.8-58.8s-58.7 26.3-58.7 58.7c0 10.8 2.9 20.9 7.9 29.6 5 8.7 12.3 16 20.9 21.1L627 907.6l-26 50.8-23.3 45.7c-6.4 12.6 2.8 27.6 17 27.6h153.5c14.2 0 23.3-15 16.9-27.6l-22.9-45z" id="path20"/><path class="st1" d="M1017.7 640.9c-223.5-37.9-342.9-176-346.3-181-3.4 4.9-121.1 142.8-342.4 180.4l-38.7 6.6 1.5 39.2c.2 5.5 5.6 136.4 51.5 280.5 63.1 198 158.7 325.1 303.8 366.1l24.1 7.1 12.4-3.2c342.1-96.7 366.7-628.3 367.6-650.7l1.3-39-34.8-6zm-230.5 395.6c-8.4 13.7-23 21.9-39 21.9H594.7c-16.1 0-30.7-8.2-39.1-21.9-8.4-13.7-9.1-30.4-1.8-44.7l23.3-45.7 26-50.8 5.7-11.1c-4-4.4-7.5-9.2-10.5-14.4-7.6-13.1-11.6-27.9-11.6-43 0-47.2 38.4-85.6 85.6-85.6s85.6 38.4 85.7 85.4c0 22.1-8.6 43-23.3 58.7l5.4 10.7 26 50.8 22.9 45c7.3 14.3 6.6 31-1.8 44.7z" id="path22"/></g><g id="g28"><path class="st1" d="M1052.5 651.2h-83.9V366.7c0-152.2-130.3-276-290.4-276s-290.4 123.8-290.4 276v163.6h-90.7V366.7C297.1 164.5 468 0 678.2 0c210.1 0 381.1 164.5 381.1 366.7l-6.8 284.5z" id="path26"/></g><path class="st1" d="M671.4 570.7c61.7 49.9 162.9 112.7 297.2 142.5-9.8 107.4-60.1 466.3-296.7 542.8l-2-.6-.4-.1-.4-.1c-55.1-15.6-101.6-47.4-142-97.4-41.9-51.7-77.9-124.3-107-215.7-30.1-94.4-41.5-183.6-45.6-228.6 138.8-30 237.7-93.8 296.9-142.8m0-110.8C668 464.8 550.3 602.7 329 640.3l-38.7 6.6 1.5 39.2c.2 5.5 5.6 136.4 51.5 280.5 63.1 198 158.7 325.1 303.8 366.1l24.1 7.1 12.4-3.2c342.1-96.7 366.7-628.3 367.6-650.7l1.3-39-34.8-5.9c-223.5-38-342.9-176.1-346.3-181.1z" id="path30"/><g id="g34"><path class="st1" d="M1158.7 523.2c-8.9-1.5-20.6-3.7-29.3-5.4l-3.5 77.9c.2 0-.2 3.4 0 3.4-3 48.9-10.5 214.3-63.3 396-73.7 253.7-214.5 404.2-390.3 456.1l-13.2-3.9-.4-.1-.4-.1c-86.9-24.5-159.8-74.4-223-152.4C372 1216.6 318 1108 274.6 971.8c-53.2-167-66.8-323.2-69.8-369.6 137.7-25.4 269.9-80 383.3-158.5 33.5-23.2 61.4-45.6 83.7-65.3 22.7 19.9 51.1 42.5 85 65.8 38.5 26.4 79.3 49.9 121.6 70.7v-90.4c-133.4-73.2-203.9-155-207-159.5-5 7.1-174.7 206.1-494.2 260.3l-55.8 9.5 2.1 56.5c.3 7.9 8.1 196.9 74.3 404.8 91.1 285.8 229.1 469.1 438.5 528.3l34.8 10.2 17.9-4.6c493.7-139.5 516.8-909.7 518-942l1.9-56.3-50.2-8.5z" id="path32"/></g><path class="st1" d="M765.1 1004c6.4 12.6-2.7 27.6-16.9 27.6H594.7c-14.2 0-23.4-15-17-27.6l23.3-45.7 26-50.8 15.4-30.2c-8.6-5.1-15.9-12.4-20.9-21.1-5-8.7-7.9-18.8-7.9-29.6 0-32.5 26.3-58.8 58.7-58.8s58.8 26.3 58.8 58.8c0 22.1-12.2 41.4-30.2 51.4l15.3 30.2 26 50.7 22.9 45.1z" id="path36"/></g></svg>