<?xml version="1.0" encoding="UTF-8"?>
<svg id="Layer_2" data-name="Layer 2" xmlns="http://www.w3.org/2000/svg" viewBox="0 0 13.31 20">
  <defs>
    <style>
      .cls-1 {
        fill: currentColor;
      }
    </style>
  </defs>
  <g id="Layer_1-2" data-name="Layer 1">
    <g id="wp_2fa_mark" data-name="wp 2fa mark">
      <g id="uuid-0ff8129c-8319-43f5-a59a-dee2fa5a0064" data-name="Layer 1-2">
        <g id="wp2fa_icon" data-name="wp2fa icon">
          <polygon class="cls-1" points="4.44 6.66 7.76 3.33 11.09 0 5.54 0 0 0 0 3.33 0 6.66 1.11 5.54 2.22 4.44 3.33 5.54 4.44 6.66"/>
          <polygon class="cls-1" points="13.31 20 13.31 15.55 13.31 11.09 8.87 15.53 4.44 19.97 8.87 19.98 13.31 20"/>
          <polygon class="cls-1" points="4.44 11.09 3.33 9.98 2.22 8.87 1.11 7.76 0 6.66 0 11.09 0 15.53 1.11 14.42 2.22 13.31 3.33 14.42 4.44 15.53 7.76 12.2 11.09 8.87 12.2 9.98 13.31 11.09 13.31 6.66 13.31 2.22 8.87 6.66 4.44 11.09"/>
        </g>
      </g>
    </g>
  </g>
</svg>