<svg width="1500" height="1983.1" xmlns="http://www.w3.org/2000/svg" xml:space="preserve" version="1.1">
		<g id="Layer_1">
		 <title>Layer 1</title>
		 <g id="svg_9">
		  <g id="svg_13">
		   <path id="svg_11" fill="#FFFFFF" d="m802.2,1239.7l-33.6,-65.5l-19.8,-39c23.3,-12.9 39,-37.9 39,-66.4c0,-42 -34,-76 -76,-76c-42,0 -75.9,34 -75.9,75.9c0,14 3.7,27 10.2,38.3c6.5,11.2 15.9,20.7 27,27.3l-19.9,39l-33.6,65.6l-30.1,59.1c-8.3,16.3 3.6,35.7 22,35.7l198.5,0c18.4,0 30.1,-19.4 21.8,-35.7l-29.6,-58.3z" class="st1"/>
		   <path id="svg_12" fill="#FFFFFF" d="m1158.3,828.5c-288.8,-49 -443.1,-227.4 -447.5,-233.9c-4.4,6.3 -156.5,184.5 -442.5,233.1l-50,8.5l1.9,50.7c0.3,7.1 7.2,176.3 66.6,362.5c81.5,255.9 205.1,420.1 392.6,473.1l31.1,9.2l16,-4.1c442.1,-125 473.9,-811.9 475,-840.9l1.7,-50.4l-44.9,-7.8zm-297.9,511.2c-10.9,17.7 -29.7,28.3 -50.4,28.3l-198.4,0c-20.8,0 -39.7,-10.6 -50.5,-28.3c-10.9,-17.7 -11.8,-39.3 -2.3,-57.8l30.1,-59.1l33.6,-65.6l7.4,-14.3c-5.2,-5.7 -9.7,-11.9 -13.6,-18.6c-9.8,-16.9 -15,-36.1 -15,-55.6c0,-61 49.6,-110.6 110.6,-110.6c61,0 110.6,49.6 110.7,110.4c0,28.6 -11.1,55.6 -30.1,75.9l7,13.8l33.6,65.6l29.6,58.2c9.5,18.4 8.6,40 -2.3,57.7z" class="st1"/>
		  </g>
		  <g id="svg_15">
		   <path id="svg_14" fill="#FFFFFF" d="m1203.2,841.8l-108.4,0l0,-367.6c0,-196.7 -168.4,-356.7 -375.3,-356.7s-375.3,160 -375.3,356.7l0,211.4l-117.1,0l0,-211.4c0,-261.3 220.9,-473.9 492.5,-473.9c271.4,0 492.4,212.6 492.4,473.9l-8.8,367.6z" class="st1"/>
		  </g>
		  <path id="svg_16" fill="#FFFFFF" d="m710.8,737.8c79.7,64.5 210.5,145.6 384.1,184.1c-12.7,138.8 -77.7,602.6 -383.4,701.4l-2.6,-0.8l-0.5,-0.1l-0.5,-0.1c-71.2,-20.2 -131.3,-61.3 -183.5,-125.9c-54.1,-66.8 -100.7,-160.6 -138.3,-278.7c-38.9,-122 -53.6,-237.3 -58.9,-295.4c179.2,-38.8 307.1,-121.2 383.6,-184.5m0,-143.2c-4.4,6.3 -156.5,184.5 -442.5,233.1l-50,8.5l1.9,50.7c0.3,7.1 7.2,176.3 66.6,362.5c81.5,255.9 205.1,420.1 392.6,473.1l31.1,9.2l16,-4.1c442.1,-125 473.9,-811.9 475,-840.9l1.7,-50.4l-45,-7.6c-288.8,-49.2 -443.1,-227.6 -447.4,-234.1l0,0z" class="st1"/>
		  <g id="svg_18">
		   <path id="svg_17" fill="#FFFFFF" d="m1340.5,676.4c-11.5,-1.9 -26.6,-4.8 -37.9,-7l-4.5,100.7c0.3,0 -0.3,4.4 0,4.4c-3.9,63.2 -13.6,276.9 -81.8,511.7c-95.2,327.9 -277.2,522.3 -504.4,589.4l-17.1,-5l-0.5,-0.1l-0.5,-0.1c-112.3,-31.7 -206.5,-96.1 -288.2,-196.9c-81.8,-100.9 -151.6,-241.3 -207.7,-417.3c-68.7,-215.8 -86.3,-417.7 -90.2,-477.6c177.9,-32.8 348.8,-103.4 495.3,-204.8c43.3,-30 79.3,-58.9 108.2,-84.4c29.3,25.7 66,54.9 109.8,85c49.8,34.1 102.5,64.5 157.1,91.4l0,-117c-172.4,-94.6 -263.5,-200.3 -267.5,-206.1c-6.5,9.2 -225.8,266.3 -638.6,336.4l-72,12.3l2.7,73c0.4,10.2 10.5,254.4 96,523.1c117.7,369.3 296.1,606.2 566.7,682.7l45,13.2l23.1,-5.9c638,-180.3 667.8,-1175.6 669.4,-1217.3l2.5,-72.8l-64.9,-11z" class="st1"/>
		  </g>
		  <path id="svg_19" fill="#FFFFFF" d="m831.8,1297.7c8.3,16.3 -3.5,35.7 -21.8,35.7l-198.4,0c-18.4,0 -30.2,-19.4 -22,-35.7l30.1,-59.1l33.6,-65.6l19.9,-39c-11.1,-6.6 -20.5,-16 -27,-27.3c-6.5,-11.2 -10.2,-24.3 -10.2,-38.3c0,-42 34,-76 75.9,-76s76,34 76,76c0,28.6 -15.8,53.5 -39,66.4l19.8,39l33.6,65.5l29.5,58.4z" class="st1"/>
		 </g>
		</g>
	   </svg>